<svg width="41" height="46" viewBox="0 0 41 46" fill="none" xmlns="http://www.w3.org/2000/svg">
<rect width="40.02" height="46" rx="8" fill="#135BEC" fill-opacity="0.1"/>
<path d="M21.3711 29.625L20.01 28.2639L23.4614 24.8125L15.1975 16.5486L11.7461 20L10.385 18.6389L11.7461 17.2292L10.385 15.8681L12.4267 13.8264L11.0656 12.4167L12.4267 11.0556L13.8364 12.4167L15.8781 10.375L17.2392 11.7361L18.6489 10.375L20.01 11.7361L16.5586 15.1875L24.8225 23.4514L28.2739 20L29.635 21.3611L28.2739 22.7708L29.635 24.1319L27.5933 26.1736L28.9545 27.5833L27.5933 28.9444L26.1836 27.5833L24.142 29.625L22.7808 28.2639L21.3711 29.625Z" fill="#135BEC"/>
</svg>
