<svg width="41" height="46" viewBox="0 0 41 46" fill="none" xmlns="http://www.w3.org/2000/svg">
<rect width="40.02" height="46" rx="8" fill="#10B981" fill-opacity="0.1"/>
<path d="M23.1695 13.1944C23.1695 13.1944 23.0845 13.1944 22.9143 13.1944C22.7442 13.1944 22.5416 13.077 22.3067 12.842C22.0717 12.6071 21.9543 12.3194 21.9543 11.9792C21.9543 11.6389 22.0717 11.3513 22.3067 11.1163C22.5416 10.8814 22.8293 10.7639 23.1695 10.7639C23.5098 10.7639 23.7974 10.8814 24.0324 11.1163C24.2673 11.3513 24.3848 11.6389 24.3848 11.9792C24.3848 12.3194 24.2673 12.6071 24.0324 12.842C23.7974 13.077 23.5098 13.1944 23.1695 13.1944ZM23.1695 29.2361C23.1695 29.2361 23.0845 29.2361 22.9143 29.2361C22.7442 29.2361 22.5416 29.1186 22.3067 28.8837C22.0717 28.6487 21.9543 28.3611 21.9543 28.0208C21.9543 27.6806 22.0717 27.3929 22.3067 27.158C22.5416 26.923 22.8293 26.8056 23.1695 26.8056C23.5098 26.8056 23.7974 26.923 24.0324 27.158C24.2673 27.3929 24.3848 27.6806 24.3848 28.0208C24.3848 28.3611 24.2673 28.6487 24.0324 28.8837C23.7974 29.1186 23.5098 29.2361 23.1695 29.2361ZM27.0584 16.5972C27.0584 16.5972 26.9734 16.5972 26.8032 16.5972C26.6331 16.5972 26.4305 16.4797 26.1956 16.2448C25.9606 16.0098 25.8432 15.7222 25.8432 15.3819C25.8432 15.0417 25.9606 14.7541 26.1956 14.5191C26.4305 14.2841 26.7182 14.1667 27.0584 14.1667C27.3987 14.1667 27.6863 14.2841 27.9213 14.5191C28.1562 14.7541 28.2737 15.0417 28.2737 15.3819C28.2737 15.7222 28.1562 16.0098 27.9213 16.2448C27.6863 16.4797 27.3987 16.5972 27.0584 16.5972ZM27.0584 25.8333C27.0584 25.8333 26.9734 25.8333 26.8032 25.8333C26.6331 25.8333 26.4305 25.7159 26.1956 25.4809C25.9606 25.2459 25.8432 24.9583 25.8432 24.6181C25.8432 24.2778 25.9606 23.9902 26.1956 23.7552C26.4305 23.5203 26.7182 23.4028 27.0584 23.4028C27.3987 23.4028 27.6863 23.5203 27.9213 23.7552C28.1562 23.9902 28.2737 24.2778 28.2737 24.6181C28.2737 24.9583 28.1562 25.2459 27.9213 25.4809C27.6863 25.7159 27.3987 25.8333 27.0584 25.8333ZM28.5168 21.2153C28.5168 21.2153 28.4317 21.2153 28.2616 21.2153C28.0914 21.2153 27.8889 21.0978 27.6539 20.8628C27.419 20.6279 27.3015 20.3403 27.3015 20C27.3015 19.6597 27.419 19.3721 27.6539 19.1372C27.8889 18.9022 28.1765 18.7847 28.5168 18.7847C28.857 18.7847 29.1447 18.9022 29.3796 19.1372C29.6146 19.3721 29.732 19.6597 29.732 20C29.732 20.3403 29.6146 20.6279 29.3796 20.8628C29.1447 21.0978 28.857 21.2153 28.5168 21.2153ZM20.0098 29.7222C18.6649 29.7222 17.401 29.467 16.2182 28.9566C15.0353 28.4462 14.0063 27.7535 13.1313 26.8785C12.2563 26.0035 11.5636 24.9745 11.0532 23.7917C10.5428 22.6088 10.2876 21.3449 10.2876 20C10.2876 18.6551 10.5428 17.3912 11.0532 16.2083C11.5636 15.0255 12.2563 13.9965 13.1313 13.1215C14.0063 12.2465 15.0353 11.5538 16.2182 11.0434C17.401 10.533 18.6649 10.2778 20.0098 10.2778V12.2222C17.8385 12.2222 15.9994 12.9757 14.4925 14.4826C12.9855 15.9896 12.232 17.8287 12.232 20C12.232 22.1713 12.9855 24.0104 14.4925 25.5174C15.9994 27.0243 17.8385 27.7778 20.0098 27.7778V29.7222ZM20.0098 21.9444C20.0098 21.9444 19.8761 21.9444 19.6088 21.9444C19.3414 21.9444 19.0173 21.754 18.6366 21.3733C18.2558 20.9925 18.0654 20.5347 18.0654 20C18.0654 19.919 18.0694 19.8339 18.0775 19.7448C18.0856 19.6557 18.1059 19.5706 18.1383 19.4896L16.1209 17.4722L17.482 16.1111L19.4994 18.1285C19.5642 18.1123 19.7344 18.088 20.0098 18.0556C20.5445 18.0556 21.0023 18.2459 21.3831 18.6267C21.7639 19.0075 21.9543 19.4653 21.9543 20C21.9543 20.5347 21.7639 20.9925 21.3831 21.3733C21.0023 21.754 20.5445 21.9444 20.0098 21.9444Z" fill="#10B981"/>
</svg>
