<svg width="72" height="72" viewBox="0 0 72 72" fill="none" xmlns="http://www.w3.org/2000/svg">
<path d="M63.9375 20.0625V15.9375H56.0625V31.3125C61.3125 29.4375 63.9375 25.6875 63.9375 20.0625V20.0625M15.9375 31.3125V15.9375H8.0625V20.0625C8.0625 25.6875 10.6875 29.4375 15.9375 31.3125V31.3125M63.9375 8.0625C66.0625 8.0625 67.9375 8.84375 69.5625 10.4062C71.1875 11.9688 72 13.8125 72 15.9375V20.0625C72 25.0625 70.3125 29.4375 66.9375 33.1875C63.5625 36.9375 59.375 39.125 54.375 39.75C53.25 42.5 51.2812 45 48.4688 47.25C45.6562 49.5 42.8125 50.9375 39.9375 51.5625V63.9375H56.0625V72H15.9375V63.9375H32.0625V51.5625C29.1875 50.9375 26.3438 49.5 23.5312 47.25C20.7188 45 18.75 42.5 17.625 39.75C12.625 39.125 8.4375 36.9375 5.0625 33.1875C1.6875 29.4375 0 25.0625 0 20.0625V15.9375C0 13.8125 0.8125 11.9688 2.4375 10.4062C4.0625 8.84375 5.9375 8.0625 8.0625 8.0625H15.9375V0H56.0625V8.0625H63.9375V8.0625" fill="#135BEC" fill-opacity="0.1"/>
</svg>
