<svg width="45" height="45" viewBox="0 0 45 45" fill="none" xmlns="http://www.w3.org/2000/svg">
<path opacity="0.2" d="M30 20.0391V15C30 13.5938 29.5117 12.4023 28.5352 11.4258C27.5586 10.4492 26.3672 9.96094 24.9609 9.96094H15V15H24.9609V20.0391H20.0391C18.6328 20.0391 17.4414 20.5078 16.4648 21.4453C15.4883 22.3828 15 23.5547 15 24.9609V35.0391H30V30H20.0391V24.9609H24.9609C26.3672 24.9609 27.5586 24.4922 28.5352 23.5547C29.5117 22.6172 30 21.4453 30 20.0391V20.0391M39.9609 0C41.2891 0 42.4609 0.507812 43.4766 1.52344C44.4922 2.53906 45 3.71094 45 5.03906V39.9609C45 41.2891 44.4922 42.4609 43.4766 43.4766C42.4609 44.4922 41.2891 45 39.9609 45H5.03906C3.71094 45 2.53906 44.4922 1.52344 43.4766C0.507812 42.4609 0 41.2891 0 39.9609V5.03906C0 3.71094 0.507812 2.53906 1.52344 1.52344C2.53906 0.507812 3.71094 0 5.03906 0H39.9609V0" fill="#334155"/>
</svg>
