<svg width="45" height="45" viewBox="0 0 45 45" fill="none" xmlns="http://www.w3.org/2000/svg">
<path opacity="0.2" d="M30 18.75V15C30 13.5938 29.5312 12.4023 28.5938 11.4258C27.6562 10.4492 26.4844 9.96094 25.0781 9.96094H15V15H25.0781V20.0391H20.0391V24.9609H25.0781V30H15V35.0391H25.0781C26.4844 35.0391 27.6562 34.5508 28.5938 33.5742C29.5312 32.5977 30 31.4062 30 30V26.25C30 25.1562 29.6484 24.2578 28.9453 23.5547C28.2422 22.8516 27.3438 22.5 26.25 22.5C27.3438 22.5 28.2422 22.1484 28.9453 21.4453C29.6484 20.7422 30 19.8438 30 18.75V18.75M40.0781 0C41.4062 0 42.5586 0.507812 43.5352 1.52344C44.5117 2.53906 45 3.71094 45 5.03906V39.9609C45 41.2891 44.5117 42.4609 43.5352 43.4766C42.5586 44.4922 41.4062 45 40.0781 45H5.03906C3.71094 45 2.53906 44.4922 1.52344 43.4766C0.507812 42.4609 0 41.2891 0 39.9609V5.03906C0 3.71094 0.507812 2.53906 1.52344 1.52344C2.53906 0.507812 3.71094 0 5.03906 0H40.0781V0" fill="#334155"/>
</svg>
