<svg width="36" height="44" viewBox="0 0 36 44" fill="none" xmlns="http://www.w3.org/2000/svg">
<path d="M17.55 31C15.15 30.875 13.125 29.95 11.475 28.225C9.825 26.5 9 24.425 9 22C9 19.5 9.875 17.375 11.625 15.625C13.375 13.875 15.5 13 18 13C20.425 13 22.5 13.825 24.225 15.475C25.95 17.125 26.875 19.15 27 21.55L23.85 20.6125C23.525 19.2625 22.825 18.1562 21.75 17.2937C20.675 16.4312 19.425 16 18 16C16.35 16 14.9375 16.5875 13.7625 17.7625C12.5875 18.9375 12 20.35 12 22C12 23.425 12.4313 24.675 13.2938 25.75C14.1562 26.825 15.2625 27.525 16.6125 27.85L17.55 31ZM19.35 36.925C19.125 36.975 18.9 37 18.675 37C18.45 37 18.225 37 18 37C15.925 37 13.975 36.6062 12.15 35.8187C10.325 35.0312 8.7375 33.9625 7.3875 32.6125C6.0375 31.2625 4.96875 29.675 4.18125 27.85C3.39375 26.025 3 24.075 3 22C3 19.925 3.39375 17.975 4.18125 16.15C4.96875 14.325 6.0375 12.7375 7.3875 11.3875C8.7375 10.0375 10.325 8.96875 12.15 8.18125C13.975 7.39375 15.925 7 18 7C20.075 7 22.025 7.39375 23.85 8.18125C25.675 8.96875 27.2625 10.0375 28.6125 11.3875C29.9625 12.7375 31.0313 14.325 31.8188 16.15C32.6063 17.975 33 19.925 33 22C33 22.225 33 22.45 33 22.675C33 22.9 32.975 23.125 32.925 23.35L30 22.45V22C30 18.65 28.8375 15.8125 26.5125 13.4875C24.1875 11.1625 21.35 10 18 10C14.65 10 11.8125 11.1625 9.4875 13.4875C7.1625 15.8125 6 18.65 6 22C6 25.35 7.1625 28.1875 9.4875 30.5125C11.8125 32.8375 14.65 34 18 34C18.075 34 18.15 34 18.225 34C18.3 34 18.375 34 18.45 34L19.35 36.925ZM30.7875 37.75L24.375 31.3375L22.5 37L18 22L33 26.5L27.3375 28.375L33.75 34.7875L30.7875 37.75Z" fill="#135BEC"/>
</svg>
