<svg width="15" height="16" viewBox="0 0 15 16" fill="none" xmlns="http://www.w3.org/2000/svg">
<path d="M7.01002 13.5557C7.01002 13.5557 6.81789 13.5557 6.43363 13.5557C6.04938 13.5557 5.51928 13.4098 4.84336 13.1182C4.16743 12.8265 3.57947 12.4307 3.07947 11.9307C2.57947 11.4307 2.18363 10.8427 1.89197 10.1668C1.6003 9.49085 1.45447 8.76863 1.45447 8.00011C1.45447 7.23159 1.6003 6.50937 1.89197 5.83344C2.18363 5.15752 2.57947 4.56955 3.07947 4.06955C3.57947 3.56955 4.16743 3.17372 4.84336 2.88205C5.51928 2.59039 6.24151 2.44455 7.01002 2.44455C7.77854 2.44455 8.50076 2.59039 9.17669 2.88205C9.85262 3.17372 10.4406 3.56955 10.9406 4.06955C11.4406 4.56955 11.8364 5.15752 12.1281 5.83344C12.4197 6.50937 12.5656 7.23159 12.5656 8.00011C12.5656 8.76863 12.4197 9.49085 12.1281 10.1668C11.8364 10.8427 11.4406 11.4307 10.9406 11.9307C10.4406 12.4307 9.85262 12.8265 9.17669 13.1182C8.50076 13.4098 7.77854 13.5557 7.01002 13.5557ZM6.45447 12.4168V11.3334C6.14891 11.3334 5.88734 11.2246 5.66975 11.0071C5.45215 10.7895 5.34336 10.5279 5.34336 10.2223V9.66677L2.67669 7.00011C2.64891 7.16677 2.62345 7.33344 2.6003 7.50011C2.57715 7.66677 2.56558 7.83344 2.56558 8.00011C2.56558 9.12048 2.93363 10.102 3.66975 10.9446C4.40586 11.7871 5.3341 12.2779 6.45447 12.4168ZM10.2878 11.0001C10.6674 10.5834 10.9568 10.1182 11.1559 9.60427C11.3549 9.09039 11.4545 8.55566 11.4545 8.00011C11.4545 7.0927 11.2022 6.264 10.6975 5.514C10.1929 4.764 9.51928 4.22233 8.67669 3.889V4.11122C8.67669 4.41677 8.56789 4.67835 8.3503 4.89594C8.13271 5.11353 7.87113 5.22233 7.56558 5.22233H6.45447V6.33344C6.45447 6.49085 6.40123 6.62279 6.29475 6.72927C6.18826 6.83576 6.05632 6.889 5.89891 6.889H4.7878V8.00011H8.12113C8.27854 8.00011 8.41049 8.05335 8.51697 8.15983C8.62345 8.26631 8.67669 8.39826 8.67669 8.55566V10.2223H9.23225C9.47299 10.2223 9.69058 10.2941 9.88502 10.4376C10.0795 10.5811 10.2137 10.7686 10.2878 11.0001Z" fill="#F1F5F9"/>
</svg>
