<svg width="15" height="16" viewBox="0 0 15 16" fill="none" xmlns="http://www.w3.org/2000/svg">
<path d="M7.00999 13.5557C6.24147 13.5557 5.51925 13.4098 4.84333 13.1182C4.1674 12.8265 3.57944 12.4307 3.07944 11.9307C2.57944 11.4307 2.1836 10.8427 1.89194 10.1668C1.60027 9.49085 1.45444 8.76863 1.45444 8.00011C1.45444 7.23159 1.60027 6.50937 1.89194 5.83344C2.1836 5.15752 2.57944 4.56955 3.07944 4.06955C3.57944 3.56955 4.1674 3.17372 4.84333 2.88205C5.51925 2.59039 6.24147 2.44455 7.00999 2.44455C7.77851 2.44455 8.50073 2.59039 9.17666 2.88205C9.85259 3.17372 10.4405 3.56955 10.9405 4.06955C11.4405 4.56955 11.8364 5.15752 12.128 5.83344C12.4197 6.50937 12.5655 7.23159 12.5655 8.00011V8.80566C12.5655 9.35196 12.378 9.81724 12.003 10.2015C11.628 10.5858 11.1674 10.7779 10.6211 10.7779C10.297 10.7779 9.99148 10.7084 9.70444 10.5696C9.4174 10.4307 9.17666 10.2316 8.98222 9.97233C8.7137 10.2408 8.41046 10.4422 8.07249 10.5765C7.73453 10.7108 7.38036 10.7779 7.00999 10.7779C6.24147 10.7779 5.58638 10.5071 5.04472 9.96539C4.50305 9.42372 4.23222 8.76863 4.23222 8.00011C4.23222 7.23159 4.50305 6.5765 5.04472 6.03483C5.58638 5.49316 6.24147 5.22233 7.00999 5.22233C7.77851 5.22233 8.4336 5.49316 8.97527 6.03483C9.51694 6.5765 9.78777 7.23159 9.78777 8.00011V8.80566C9.78777 9.0464 9.86648 9.25011 10.0239 9.41677C10.1813 9.58344 10.3804 9.66677 10.6211 9.66677C10.8618 9.66677 11.0609 9.58344 11.2183 9.41677C11.3757 9.25011 11.4544 9.0464 11.4544 8.80566V8.00011C11.4544 6.75937 11.0239 5.70844 10.1628 4.84733C9.30166 3.98622 8.25073 3.55566 7.00999 3.55566C5.76925 3.55566 4.71833 3.98622 3.85722 4.84733C2.9961 5.70844 2.56555 6.75937 2.56555 8.00011C2.56555 9.24085 2.9961 10.2918 3.85722 11.1529C4.71833 12.014 5.76925 12.4446 7.00999 12.4446H9.78777V13.5557H7.00999ZM7.00999 9.66677C7.00999 9.66677 7.12573 9.66677 7.35722 9.66677C7.5887 9.66677 7.86647 9.50474 8.19055 9.18066C8.51462 8.85659 8.67666 8.46307 8.67666 8.00011C8.67666 7.53715 8.51462 7.14363 8.19055 6.81955C7.86647 6.49548 7.47296 6.33344 7.00999 6.33344C6.54703 6.33344 6.15351 6.49548 5.82944 6.81955C5.50536 7.14363 5.34333 7.53715 5.34333 8.00011C5.34333 8.46307 5.50536 8.85659 5.82944 9.18066C6.15351 9.50474 6.54703 9.66677 7.00999 9.66677Z" fill="#F1F5F9"/>
</svg>
