<svg width="137" height="66" viewBox="0 0 137 66" fill="none" xmlns="http://www.w3.org/2000/svg">
<rect x="12" y="2" width="36.02" height="42" rx="8" fill="#135BEC"/>
<g filter="url(#filter0_dd_3_233)">
<rect x="12" y="2" width="36.02" height="42" rx="8" fill="white" fill-opacity="0.01" shape-rendering="crispEdges"/>
</g>
<path d="M38.4197 17.4479L37.0586 16.0868L37.7878 15.3333L34.6767 12.2222L33.9232 12.9514L32.5378 11.566L33.2669 10.8125C33.6396 10.4398 34.1014 10.2575 34.6524 10.2656C35.2033 10.2737 35.6651 10.4641 36.0378 10.8368L39.1732 13.9722C39.5459 14.3449 39.7322 14.8027 39.7322 15.3455C39.7322 15.8883 39.5459 16.3461 39.1732 16.7188L38.4197 17.4479ZM26.753 29.1389C26.3804 29.5116 25.9226 29.6979 25.3798 29.6979C24.837 29.6979 24.3792 29.5116 24.0065 29.1389L20.8711 26.0035C20.4984 25.6308 20.3121 25.173 20.3121 24.6302C20.3121 24.0874 20.4984 23.6296 20.8711 23.2569L21.6003 22.5278L22.9857 23.9132L22.2322 24.6424L25.3676 27.7778L26.0968 27.0243L27.4822 28.4097L26.753 29.1389ZM36.4024 20.9722L37.7878 19.5868L30.4232 12.2222L29.0378 13.6076L36.4024 20.9722ZM29.5968 27.7778L30.9822 26.3681L23.6419 19.0278L22.2322 20.4132L29.5968 27.7778ZM29.451 22.0903L32.1246 19.441L30.569 17.8854L27.9197 20.559L29.451 22.0903ZM30.9822 29.1389C30.6095 29.5116 30.1477 29.6979 29.5968 29.6979C29.0459 29.6979 28.5841 29.5116 28.2114 29.1389L20.8711 21.7986C20.4984 21.4259 20.3121 20.9641 20.3121 20.4132C20.3121 19.8623 20.4984 19.4005 20.8711 19.0278L22.2565 17.6424C22.6292 17.2697 23.087 17.0833 23.6298 17.0833C24.1726 17.0833 24.6304 17.2697 25.003 17.6424L26.5343 19.1736L29.2079 16.5L27.6767 14.9931C27.304 14.6204 27.1176 14.1586 27.1176 13.6076C27.1176 13.0567 27.304 12.5949 27.6767 12.2222L29.0621 10.8368C29.4348 10.4641 29.8925 10.2778 30.4353 10.2778C30.9782 10.2778 31.4359 10.4641 31.8086 10.8368L39.1732 18.2014C39.5459 18.5741 39.7322 19.0318 39.7322 19.5747C39.7322 20.1175 39.5459 20.5752 39.1732 20.9479L37.7878 22.3333C37.4151 22.706 36.9533 22.8924 36.4024 22.8924C35.8514 22.8924 35.3896 22.706 35.0169 22.3333L33.51 20.8021L30.8364 23.4757L32.3676 25.0069C32.7403 25.3796 32.9267 25.8374 32.9267 26.3802C32.9267 26.923 32.7403 27.3808 32.3676 27.7535L30.9822 29.1389Z" fill="white"/>
<path d="M59.1208 30V15.4545H69.0498V18.3097H62.6365V21.2926H68.4177V24.1548H62.6365V30H59.1208ZM70.3201 30V19.0909H73.7931V30H70.3201ZM72.0601 17.8196C71.5724 17.8196 71.1534 17.6586 70.803 17.3366C70.4526 17.0099 70.2774 16.617 70.2774 16.1577C70.2774 15.7031 70.4526 15.3149 70.803 14.9929C71.1534 14.6662 71.5724 14.5028 72.0601 14.5028C72.5525 14.5028 72.9716 14.6662 73.3172 14.9929C73.6676 15.3149 73.8428 15.7031 73.8428 16.1577C73.8428 16.617 73.6676 17.0099 73.3172 17.3366C72.9716 17.6586 72.5525 17.8196 72.0601 17.8196ZM81.6613 19.0909V21.6477H74.7792V19.0909H81.6613ZM76.221 16.4773H79.694V26.5696C79.694 26.7827 79.7271 26.9555 79.7934 27.0881C79.8644 27.2159 79.9662 27.3082 80.0988 27.3651C80.2314 27.4171 80.39 27.4432 80.5747 27.4432C80.7073 27.4432 80.8469 27.4313 80.9937 27.4077C81.1452 27.3793 81.2589 27.3556 81.3346 27.3366L81.8602 29.8438C81.6945 29.8911 81.4601 29.9503 81.1571 30.0213C80.8588 30.0923 80.5013 30.1373 80.0846 30.1562C79.2702 30.1941 78.5718 30.0994 77.9894 29.8722C77.4118 29.6402 76.9691 29.2803 76.6613 28.7926C76.3583 28.3049 76.2115 27.6918 76.221 26.9531V16.4773ZM81.7739 18.3097V15.4545H94.0679V18.3097H89.6574V30H86.1915V18.3097H81.7739ZM94.1521 30V19.0909H97.5257V21.0795H97.6393C97.8382 20.3598 98.1625 19.8248 98.6123 19.4744C99.0621 19.1193 99.5853 18.9418 100.182 18.9418C100.343 18.9418 100.509 18.9536 100.679 18.9773C100.85 18.9962 101.008 19.027 101.155 19.0696V22.0881C100.989 22.0312 100.771 21.9863 100.502 21.9531C100.236 21.92 99.9996 21.9034 99.7913 21.9034C99.3794 21.9034 99.0077 21.9957 98.6762 22.1804C98.3495 22.3603 98.0915 22.6136 97.9021 22.9403C97.7174 23.2623 97.6251 23.6411 97.6251 24.0767V30H94.1521ZM104.735 30.1847C104.039 30.1847 103.421 30.0687 102.881 29.8366C102.346 29.5999 101.923 29.2448 101.61 28.7713C101.302 28.2931 101.149 27.6941 101.149 26.9744C101.149 26.3684 101.255 25.857 101.468 25.4403C101.681 25.0237 101.975 24.6851 102.349 24.4247C102.723 24.1643 103.154 23.9678 103.641 23.8352C104.129 23.6979 104.65 23.6056 105.204 23.5582C105.824 23.5014 106.324 23.4422 106.703 23.3807C107.081 23.3144 107.356 23.2221 107.526 23.1037C107.702 22.9806 107.789 22.8078 107.789 22.5852V22.5497C107.789 22.1851 107.664 21.9034 107.413 21.7045C107.162 21.5057 106.823 21.4062 106.397 21.4062C105.938 21.4062 105.569 21.5057 105.289 21.7045C105.01 21.9034 104.832 22.178 104.756 22.5284L101.553 22.4148C101.648 21.7519 101.892 21.16 102.285 20.6392C102.683 20.1136 103.227 19.7017 103.918 19.4034C104.614 19.1004 105.45 18.9489 106.426 18.9489C107.122 18.9489 107.763 19.0317 108.35 19.1974C108.937 19.3584 109.449 19.5952 109.884 19.9077C110.32 20.2154 110.656 20.5942 110.893 21.044C111.134 21.4938 111.255 22.0076 111.255 22.5852V30H107.988V28.4801H107.903C107.709 28.8494 107.46 29.1619 107.157 29.4176C106.859 29.6733 106.506 29.8651 106.099 29.9929C105.696 30.1207 105.242 30.1847 104.735 30.1847ZM105.808 27.9119C106.182 27.9119 106.518 27.8362 106.816 27.6847C107.119 27.5331 107.361 27.3248 107.541 27.0597C107.721 26.7898 107.81 26.4773 107.81 26.1222V25.0852C107.711 25.1373 107.59 25.1847 107.448 25.2273C107.311 25.2699 107.159 25.3101 106.994 25.348C106.828 25.3859 106.658 25.419 106.482 25.4474C106.307 25.4759 106.139 25.5019 105.978 25.5256C105.651 25.5777 105.372 25.6581 105.14 25.767C104.913 25.8759 104.738 26.018 104.614 26.1932C104.496 26.3636 104.437 26.5672 104.437 26.804C104.437 27.1638 104.565 27.4384 104.82 27.6278C105.081 27.8172 105.41 27.9119 105.808 27.9119ZM117.971 30.206C116.82 30.206 115.833 29.9692 115.009 29.4957C114.19 29.0223 113.56 28.3641 113.12 27.5213C112.68 26.6738 112.46 25.6937 112.46 24.581C112.46 23.4635 112.68 22.4834 113.12 21.6406C113.565 20.7931 114.197 20.1326 115.016 19.6591C115.84 19.1856 116.823 18.9489 117.964 18.9489C118.972 18.9489 119.851 19.1312 120.599 19.4957C121.352 19.8603 121.939 20.3764 122.36 21.044C122.786 21.7069 123.011 22.4858 123.035 23.3807H119.789C119.723 22.822 119.533 22.384 119.221 22.0668C118.913 21.7495 118.511 21.5909 118.014 21.5909C117.611 21.5909 117.258 21.7045 116.955 21.9318C116.652 22.1544 116.416 22.4858 116.245 22.9261C116.079 23.3617 115.997 23.9015 115.997 24.5455C115.997 25.1894 116.079 25.7339 116.245 26.179C116.416 26.6193 116.652 26.9531 116.955 27.1804C117.258 27.4029 117.611 27.5142 118.014 27.5142C118.336 27.5142 118.62 27.4455 118.866 27.3082C119.117 27.1709 119.323 26.9697 119.484 26.7045C119.645 26.4347 119.747 26.108 119.789 25.7244H123.035C123.002 26.6241 122.777 27.41 122.36 28.0824C121.948 28.7547 121.368 29.2779 120.62 29.652C119.877 30.0213 118.994 30.206 117.971 30.206ZM127.444 27.1378L127.459 22.9972H127.942L131.01 19.0909H134.944L130.385 24.6875H129.468L127.444 27.1378ZM124.312 30V15.4545H127.785V30H124.312ZM131.088 30L128.233 25.4688L130.52 23.0043L135.101 30H131.088Z" fill="white"/>
<defs>
<filter id="filter0_dd_3_233" x="0" y="0" width="60.02" height="66" filterUnits="userSpaceOnUse" color-interpolation-filters="sRGB">
<feFlood flood-opacity="0" result="BackgroundImageFix"/>
<feColorMatrix in="SourceAlpha" type="matrix" values="0 0 0 0 0 0 0 0 0 0 0 0 0 0 0 0 0 0 127 0" result="hardAlpha"/>
<feMorphology radius="4" operator="erode" in="SourceAlpha" result="effect1_dropShadow_3_233"/>
<feOffset dy="4"/>
<feGaussianBlur stdDeviation="3"/>
<feComposite in2="hardAlpha" operator="out"/>
<feColorMatrix type="matrix" values="0 0 0 0 0.0745098 0 0 0 0 0.356863 0 0 0 0 0.92549 0 0 0 0.2 0"/>
<feBlend mode="normal" in2="BackgroundImageFix" result="effect1_dropShadow_3_233"/>
<feColorMatrix in="SourceAlpha" type="matrix" values="0 0 0 0 0 0 0 0 0 0 0 0 0 0 0 0 0 0 127 0" result="hardAlpha"/>
<feMorphology radius="3" operator="erode" in="SourceAlpha" result="effect2_dropShadow_3_233"/>
<feOffset dy="10"/>
<feGaussianBlur stdDeviation="7.5"/>
<feComposite in2="hardAlpha" operator="out"/>
<feColorMatrix type="matrix" values="0 0 0 0 0.0745098 0 0 0 0 0.356863 0 0 0 0 0.92549 0 0 0 0.2 0"/>
<feBlend mode="normal" in2="effect1_dropShadow_3_233" result="effect2_dropShadow_3_233"/>
<feBlend mode="normal" in="SourceGraphic" in2="effect2_dropShadow_3_233" result="shape"/>
</filter>
</defs>
</svg>
