<svg width="30" height="36" viewBox="0 0 30 36" fill="none" xmlns="http://www.w3.org/2000/svg">
<path d="M16.75 30.375L15 28.625L19.4375 24.1875L8.8125 13.5625L4.375 18L2.625 16.25L4.375 14.4375L2.625 12.6875L5.25 10.0625L3.5 8.25L5.25 6.5L7.0625 8.25L9.6875 5.625L11.4375 7.375L13.25 5.625L15 7.375L10.5625 11.8125L21.1875 22.4375L25.625 18L27.375 19.75L25.625 21.5625L27.375 23.3125L24.75 25.9375L26.5 27.75L24.75 29.5L22.9375 27.75L20.3125 30.375L18.5625 28.625L16.75 30.375Z" fill="#A855F7"/>
</svg>
