<svg width="345" height="40" viewBox="0 0 345 40" fill="none" xmlns="http://www.w3.org/2000/svg">
<g clip-path="url(#clip0_3_117)">
<rect x="0.5" y="8.5" width="31" height="31" rx="15.5" fill="#1E293B" stroke="#0F172A"/>
<rect x="24.5" y="8.5" width="31" height="31" rx="15.5" fill="#334155" stroke="#0F172A"/>
<rect x="48.5" y="8.5" width="31" height="31" rx="15.5" fill="#475569" stroke="#0F172A"/>
<path d="M98.5455 22.0938C98.4858 21.8864 98.402 21.7031 98.294 21.544C98.1861 21.3821 98.054 21.2457 97.8977 21.1349C97.7443 21.0213 97.5682 20.9347 97.3693 20.875C97.1733 20.8153 96.956 20.7855 96.7173 20.7855C96.2713 20.7855 95.8793 20.8963 95.5412 21.1179C95.206 21.3395 94.9446 21.6619 94.7571 22.0852C94.5696 22.5057 94.4759 23.0199 94.4759 23.6278C94.4759 24.2358 94.5682 24.7528 94.7528 25.179C94.9375 25.6051 95.1989 25.9304 95.5369 26.1548C95.875 26.3764 96.2741 26.4872 96.7344 26.4872C97.152 26.4872 97.5085 26.4134 97.804 26.2656C98.1023 26.1151 98.3295 25.9034 98.4858 25.6307C98.6449 25.358 98.7244 25.0355 98.7244 24.6634L99.0994 24.7188H96.8494V23.3295H100.501V24.429C100.501 25.196 100.339 25.8551 100.016 26.4062C99.6918 26.9545 99.2457 27.3778 98.6776 27.6761C98.1094 27.9716 97.4588 28.1193 96.7259 28.1193C95.9077 28.1193 95.1889 27.9389 94.5696 27.5781C93.9503 27.2145 93.4673 26.6989 93.1207 26.0312C92.777 25.3608 92.6051 24.5653 92.6051 23.6449C92.6051 22.9375 92.7074 22.3068 92.9119 21.7528C93.1193 21.196 93.4091 20.7244 93.7812 20.3381C94.1534 19.9517 94.5866 19.6577 95.081 19.456C95.5753 19.2543 96.1108 19.1534 96.6875 19.1534C97.1818 19.1534 97.642 19.2259 98.0682 19.3707C98.4943 19.5128 98.8722 19.7145 99.2017 19.9759C99.5341 20.2372 99.8054 20.5483 100.016 20.9091C100.226 21.267 100.361 21.6619 100.42 22.0938H98.5455ZM103.669 19.2727V28H101.853V19.2727H103.669ZM108.08 28.1278C107.418 28.1278 106.846 27.9872 106.363 27.706C105.883 27.4219 105.512 27.027 105.251 26.5213C104.989 26.0128 104.859 25.4233 104.859 24.7528C104.859 24.0767 104.989 23.4858 105.251 22.9801C105.512 22.4716 105.883 22.0767 106.363 21.7955C106.846 21.5114 107.418 21.3693 108.08 21.3693C108.742 21.3693 109.313 21.5114 109.793 21.7955C110.276 22.0767 110.648 22.4716 110.91 22.9801C111.171 23.4858 111.302 24.0767 111.302 24.7528C111.302 25.4233 111.171 26.0128 110.91 26.5213C110.648 27.027 110.276 27.4219 109.793 27.706C109.313 27.9872 108.742 28.1278 108.08 28.1278ZM108.089 26.7216C108.39 26.7216 108.641 26.6364 108.843 26.4659C109.045 26.2926 109.197 26.0568 109.299 25.7585C109.404 25.4602 109.457 25.1207 109.457 24.7401C109.457 24.3594 109.404 24.0199 109.299 23.7216C109.197 23.4233 109.045 23.1875 108.843 23.0142C108.641 22.8409 108.39 22.7543 108.089 22.7543C107.785 22.7543 107.529 22.8409 107.322 23.0142C107.117 23.1875 106.962 23.4233 106.857 23.7216C106.755 24.0199 106.704 24.3594 106.704 24.7401C106.704 25.1207 106.755 25.4602 106.857 25.7585C106.962 26.0568 107.117 26.2926 107.322 26.4659C107.529 26.6364 107.785 26.7216 108.089 26.7216ZM112.516 28V19.2727H114.332V22.554H114.387C114.467 22.3778 114.582 22.1989 114.732 22.017C114.886 21.8324 115.085 21.679 115.329 21.5568C115.576 21.4318 115.883 21.3693 116.249 21.3693C116.727 21.3693 117.167 21.4943 117.57 21.7443C117.974 21.9915 118.296 22.3651 118.538 22.8651C118.779 23.3622 118.9 23.9858 118.9 24.7358C118.9 25.4659 118.782 26.0824 118.546 26.5852C118.313 27.0852 117.995 27.4645 117.592 27.723C117.191 27.9787 116.742 28.1065 116.245 28.1065C115.893 28.1065 115.593 28.0483 115.346 27.9318C115.102 27.8153 114.901 27.669 114.745 27.4929C114.589 27.3139 114.469 27.1335 114.387 26.9517H114.306V28H112.516ZM114.293 24.7273C114.293 25.1165 114.347 25.456 114.455 25.7457C114.563 26.0355 114.719 26.2614 114.924 26.4233C115.129 26.5824 115.377 26.6619 115.67 26.6619C115.965 26.6619 116.215 26.581 116.42 26.419C116.624 26.2543 116.779 26.027 116.884 25.7372C116.992 25.4446 117.046 25.108 117.046 24.7273C117.046 24.3494 116.994 24.017 116.888 23.7301C116.783 23.4432 116.629 23.2187 116.424 23.0568C116.219 22.8949 115.968 22.8139 115.67 22.8139C115.374 22.8139 115.124 22.892 114.92 23.0483C114.718 23.2045 114.563 23.4261 114.455 23.7131C114.347 24 114.293 24.3381 114.293 24.7273ZM121.978 28.1236C121.56 28.1236 121.188 28.0511 120.861 27.9062C120.534 27.7585 120.276 27.5412 120.086 27.2543C119.898 26.9645 119.804 26.6037 119.804 26.1719C119.804 25.8082 119.871 25.5028 120.005 25.2557C120.138 25.0085 120.32 24.8097 120.55 24.6591C120.78 24.5085 121.042 24.3949 121.334 24.3182C121.63 24.2415 121.939 24.1875 122.263 24.1562C122.644 24.1165 122.951 24.0795 123.184 24.0455C123.417 24.0085 123.586 23.9545 123.691 23.8835C123.796 23.8125 123.848 23.7074 123.848 23.5682V23.5426C123.848 23.2727 123.763 23.0639 123.593 22.9162C123.425 22.7685 123.186 22.6946 122.877 22.6946C122.55 22.6946 122.29 22.767 122.097 22.9119C121.904 23.054 121.776 23.233 121.713 23.4489L120.034 23.3125C120.12 22.9148 120.287 22.571 120.537 22.2812C120.787 21.9886 121.11 21.7642 121.505 21.608C121.902 21.4489 122.363 21.3693 122.885 21.3693C123.249 21.3693 123.597 21.4119 123.929 21.4972C124.265 21.5824 124.561 21.7145 124.82 21.8935C125.081 22.0724 125.287 22.3026 125.438 22.5838C125.588 22.8622 125.664 23.196 125.664 23.5852V28H123.942V27.0923H123.891C123.786 27.2969 123.645 27.4773 123.469 27.6335C123.293 27.7869 123.081 27.9077 122.834 27.9957C122.587 28.081 122.301 28.1236 121.978 28.1236ZM122.498 26.8707C122.765 26.8707 123 26.8182 123.205 26.7131C123.409 26.6051 123.57 26.4602 123.686 26.2784C123.803 26.0966 123.861 25.8906 123.861 25.6605V24.9659C123.804 25.0028 123.726 25.0369 123.627 25.0682C123.53 25.0966 123.421 25.1236 123.299 25.1491C123.176 25.1719 123.054 25.1932 122.932 25.2131C122.81 25.2301 122.699 25.2457 122.6 25.2599C122.387 25.2912 122.201 25.3409 122.042 25.4091C121.882 25.4773 121.759 25.5696 121.671 25.6861C121.583 25.7997 121.539 25.9418 121.539 26.1122C121.539 26.3594 121.628 26.5483 121.807 26.679C121.989 26.8068 122.219 26.8707 122.498 26.8707ZM128.887 19.2727V28H127.072V19.2727H128.887ZM136.076 28.1278C135.406 28.1278 134.829 27.9858 134.346 27.7017C133.866 27.4148 133.497 27.017 133.238 26.5085C132.983 26 132.855 25.4148 132.855 24.7528C132.855 24.0824 132.984 23.4943 133.243 22.9886C133.504 22.4801 133.875 22.0838 134.355 21.7997C134.835 21.5128 135.406 21.3693 136.068 21.3693C136.639 21.3693 137.139 21.473 137.568 21.6804C137.997 21.8878 138.336 22.179 138.586 22.554C138.836 22.929 138.974 23.3693 139 23.875H137.287C137.238 23.5483 137.11 23.2855 136.903 23.0866C136.699 22.8849 136.43 22.7841 136.098 22.7841C135.816 22.7841 135.571 22.8608 135.36 23.0142C135.153 23.1648 134.991 23.3849 134.875 23.6747C134.758 23.9645 134.7 24.3153 134.7 24.7273C134.7 25.1449 134.757 25.5 134.87 25.7926C134.987 26.0852 135.15 26.3082 135.36 26.4616C135.571 26.6151 135.816 26.6918 136.098 26.6918C136.305 26.6918 136.491 26.6491 136.656 26.5639C136.824 26.4787 136.961 26.3551 137.069 26.1932C137.18 26.0284 137.252 25.831 137.287 25.6009H139C138.971 26.1009 138.835 26.5412 138.591 26.9219C138.349 27.2997 138.015 27.5952 137.589 27.8082C137.163 28.0213 136.659 28.1278 136.076 28.1278ZM143.119 28.1278C142.457 28.1278 141.885 27.9872 141.402 27.706C140.922 27.4219 140.551 27.027 140.29 26.5213C140.028 26.0128 139.898 25.4233 139.898 24.7528C139.898 24.0767 140.028 23.4858 140.29 22.9801C140.551 22.4716 140.922 22.0767 141.402 21.7955C141.885 21.5114 142.457 21.3693 143.119 21.3693C143.781 21.3693 144.352 21.5114 144.832 21.7955C145.315 22.0767 145.688 22.4716 145.949 22.9801C146.21 23.4858 146.341 24.0767 146.341 24.7528C146.341 25.4233 146.21 26.0128 145.949 26.5213C145.688 27.027 145.315 27.4219 144.832 27.706C144.352 27.9872 143.781 28.1278 143.119 28.1278ZM143.128 26.7216C143.429 26.7216 143.68 26.6364 143.882 26.4659C144.084 26.2926 144.236 26.0568 144.338 25.7585C144.443 25.4602 144.496 25.1207 144.496 24.7401C144.496 24.3594 144.443 24.0199 144.338 23.7216C144.236 23.4233 144.084 23.1875 143.882 23.0142C143.68 22.8409 143.429 22.7543 143.128 22.7543C142.824 22.7543 142.568 22.8409 142.361 23.0142C142.156 23.1875 142.001 23.4233 141.896 23.7216C141.794 24.0199 141.743 24.3594 141.743 24.7401C141.743 25.1207 141.794 25.4602 141.896 25.7585C142.001 26.0568 142.156 26.2926 142.361 26.4659C142.568 26.6364 142.824 26.7216 143.128 26.7216ZM151.719 25.2131V21.4545H153.534V28H151.791V26.8111H151.723C151.575 27.1946 151.33 27.5028 150.986 27.7358C150.645 27.9687 150.229 28.0852 149.737 28.0852C149.3 28.0852 148.915 27.9858 148.582 27.7869C148.25 27.5881 147.99 27.3054 147.803 26.9389C147.618 26.5724 147.524 26.1335 147.521 25.6222V21.4545H149.337V25.2983C149.339 25.6847 149.443 25.9901 149.648 26.2145C149.852 26.4389 150.126 26.5511 150.47 26.5511C150.689 26.5511 150.893 26.5014 151.084 26.402C151.274 26.2997 151.428 26.1491 151.544 25.9503C151.663 25.7514 151.722 25.5057 151.719 25.2131ZM156.801 24.2159V28H154.986V21.4545H156.716V22.6094H156.793C156.938 22.2287 157.181 21.9276 157.522 21.706C157.863 21.4815 158.276 21.3693 158.762 21.3693C159.216 21.3693 159.613 21.4688 159.951 21.6676C160.289 21.8665 160.551 22.1506 160.739 22.5199C160.926 22.8864 161.02 23.3239 161.02 23.8324V28H159.205V24.1562C159.208 23.7557 159.105 23.4432 158.898 23.2188C158.691 22.9915 158.405 22.8778 158.042 22.8778C157.797 22.8778 157.581 22.9304 157.394 23.0355C157.209 23.1406 157.064 23.294 156.959 23.4957C156.857 23.6946 156.804 23.9347 156.801 24.2159ZM165.933 21.4545V22.8182H161.991V21.4545H165.933ZM162.886 19.8864H164.701V25.9886C164.701 26.1562 164.727 26.2869 164.778 26.3807C164.829 26.4716 164.9 26.5355 164.991 26.5724C165.085 26.6094 165.192 26.6278 165.315 26.6278C165.4 26.6278 165.485 26.6207 165.57 26.6065C165.656 26.5895 165.721 26.5767 165.766 26.5682L166.052 27.919C165.961 27.9474 165.833 27.9801 165.668 28.017C165.504 28.0568 165.303 28.081 165.067 28.0895C164.63 28.1065 164.246 28.0483 163.917 27.9148C163.59 27.7812 163.336 27.5739 163.154 27.2926C162.972 27.0114 162.883 26.6562 162.886 26.2273V19.8864ZM169.892 28V21.4545H171.708V28H169.892ZM170.804 20.6108C170.534 20.6108 170.303 20.5213 170.11 20.3423C169.919 20.1605 169.824 19.9432 169.824 19.6903C169.824 19.4403 169.919 19.2259 170.11 19.0469C170.303 18.8651 170.534 18.7741 170.804 18.7741C171.074 18.7741 171.304 18.8651 171.495 19.0469C171.688 19.2259 171.784 19.4403 171.784 19.6903C171.784 19.9432 171.688 20.1605 171.495 20.3423C171.304 20.5213 171.074 20.6108 170.804 20.6108ZM174.977 24.2159V28H173.162V21.4545H174.892V22.6094H174.969C175.114 22.2287 175.357 21.9276 175.697 21.706C176.038 21.4815 176.452 21.3693 176.938 21.3693C177.392 21.3693 177.788 21.4688 178.126 21.6676C178.464 21.8665 178.727 22.1506 178.915 22.5199C179.102 22.8864 179.196 23.3239 179.196 23.8324V28H177.381V24.1562C177.384 23.7557 177.281 23.4432 177.074 23.2188C176.866 22.9915 176.581 22.8778 176.217 22.8778C175.973 22.8778 175.757 22.9304 175.57 23.0355C175.385 23.1406 175.24 23.294 175.135 23.4957C175.033 23.6946 174.98 23.9347 174.977 24.2159ZM183.584 28.1278C182.914 28.1278 182.337 27.9858 181.854 27.7017C181.374 27.4148 181.005 27.017 180.746 26.5085C180.49 26 180.363 25.4148 180.363 24.7528C180.363 24.0824 180.492 23.4943 180.75 22.9886C181.012 22.4801 181.382 22.0838 181.863 21.7997C182.343 21.5128 182.914 21.3693 183.576 21.3693C184.147 21.3693 184.647 21.473 185.076 21.6804C185.505 21.8878 185.844 22.179 186.094 22.554C186.344 22.929 186.482 23.3693 186.507 23.875H184.794C184.746 23.5483 184.618 23.2855 184.411 23.0866C184.206 22.8849 183.938 22.7841 183.605 22.7841C183.324 22.7841 183.078 22.8608 182.868 23.0142C182.661 23.1648 182.499 23.3849 182.382 23.6747C182.266 23.9645 182.208 24.3153 182.208 24.7273C182.208 25.1449 182.265 25.5 182.378 25.7926C182.495 26.0852 182.658 26.3082 182.868 26.4616C183.078 26.6151 183.324 26.6918 183.605 26.6918C183.813 26.6918 183.999 26.6491 184.164 26.5639C184.331 26.4787 184.469 26.3551 184.577 26.1932C184.688 26.0284 184.76 25.831 184.794 25.6009H186.507C186.479 26.1009 186.343 26.5412 186.098 26.9219C185.857 27.2997 185.523 27.5952 185.097 27.8082C184.671 28.0213 184.167 28.1278 183.584 28.1278ZM187.67 28V21.4545H189.43V22.5966H189.498C189.617 22.1903 189.817 21.8835 190.099 21.6761C190.38 21.4659 190.704 21.3608 191.07 21.3608C191.161 21.3608 191.259 21.3665 191.364 21.3778C191.469 21.3892 191.562 21.4048 191.641 21.4247V23.0355C191.556 23.0099 191.438 22.9872 191.288 22.9673C191.137 22.9474 190.999 22.9375 190.874 22.9375C190.607 22.9375 190.369 22.9957 190.158 23.1122C189.951 23.2259 189.786 23.3849 189.664 23.5895C189.545 23.794 189.485 24.0298 189.485 24.2969V28H187.67ZM195.258 28.1278C194.585 28.1278 194.005 27.9915 193.52 27.7188C193.037 27.4432 192.664 27.054 192.403 26.5511C192.142 26.0455 192.011 25.4474 192.011 24.7571C192.011 24.0838 192.142 23.4929 192.403 22.9844C192.664 22.4759 193.032 22.0795 193.507 21.7955C193.984 21.5114 194.544 21.3693 195.186 21.3693C195.618 21.3693 196.02 21.4389 196.392 21.5781C196.767 21.7145 197.093 21.9205 197.372 22.196C197.653 22.4716 197.872 22.8182 198.028 23.2358C198.184 23.6506 198.262 24.1364 198.262 24.6932V25.1918H192.735V24.0668H196.554C196.554 23.8054 196.497 23.5739 196.383 23.3722C196.27 23.1705 196.112 23.0128 195.91 22.8991C195.711 22.7827 195.48 22.7244 195.216 22.7244C194.94 22.7244 194.696 22.7884 194.483 22.9162C194.272 23.0412 194.108 23.2102 193.988 23.4233C193.869 23.6335 193.808 23.8679 193.805 24.1264V25.196C193.805 25.5199 193.865 25.7997 193.984 26.0355C194.106 26.2713 194.278 26.4531 194.5 26.581C194.721 26.7088 194.984 26.7727 195.288 26.7727C195.49 26.7727 195.674 26.7443 195.842 26.6875C196.01 26.6307 196.153 26.5455 196.272 26.4318C196.392 26.3182 196.483 26.179 196.545 26.0142L198.224 26.125C198.139 26.5284 197.964 26.8807 197.7 27.1818C197.439 27.4801 197.1 27.7131 196.686 27.8807C196.274 28.0455 195.798 28.1278 195.258 28.1278ZM201.314 28.1236C200.896 28.1236 200.524 28.0511 200.197 27.9062C199.87 27.7585 199.612 27.5412 199.422 27.2543C199.234 26.9645 199.14 26.6037 199.14 26.1719C199.14 25.8082 199.207 25.5028 199.341 25.2557C199.474 25.0085 199.656 24.8097 199.886 24.6591C200.116 24.5085 200.377 24.3949 200.67 24.3182C200.966 24.2415 201.275 24.1875 201.599 24.1562C201.98 24.1165 202.287 24.0795 202.52 24.0455C202.752 24.0085 202.922 23.9545 203.027 23.8835C203.132 23.8125 203.184 23.7074 203.184 23.5682V23.5426C203.184 23.2727 203.099 23.0639 202.929 22.9162C202.761 22.7685 202.522 22.6946 202.213 22.6946C201.886 22.6946 201.626 22.767 201.433 22.9119C201.24 23.054 201.112 23.233 201.049 23.4489L199.37 23.3125C199.456 22.9148 199.623 22.571 199.873 22.2812C200.123 21.9886 200.446 21.7642 200.841 21.608C201.238 21.4489 201.699 21.3693 202.221 21.3693C202.585 21.3693 202.933 21.4119 203.265 21.4972C203.6 21.5824 203.897 21.7145 204.156 21.8935C204.417 22.0724 204.623 22.3026 204.774 22.5838C204.924 22.8622 205 23.196 205 23.5852V28H203.278V27.0923H203.227C203.122 27.2969 202.981 27.4773 202.805 27.6335C202.629 27.7869 202.417 27.9077 202.17 27.9957C201.923 28.081 201.637 28.1236 201.314 28.1236ZM201.833 26.8707C202.1 26.8707 202.336 26.8182 202.541 26.7131C202.745 26.6051 202.906 26.4602 203.022 26.2784C203.139 26.0966 203.197 25.8906 203.197 25.6605V24.9659C203.14 25.0028 203.062 25.0369 202.963 25.0682C202.866 25.0966 202.757 25.1236 202.635 25.1491C202.512 25.1719 202.39 25.1932 202.268 25.2131C202.146 25.2301 202.035 25.2457 201.936 25.2599C201.723 25.2912 201.537 25.3409 201.377 25.4091C201.218 25.4773 201.095 25.5696 201.007 25.6861C200.919 25.7997 200.875 25.9418 200.875 26.1122C200.875 26.3594 200.964 26.5483 201.143 26.679C201.325 26.8068 201.555 26.8707 201.833 26.8707ZM211.854 23.321L210.192 23.4233C210.164 23.2812 210.103 23.1534 210.009 23.0398C209.915 22.9233 209.792 22.831 209.638 22.7628C209.488 22.6918 209.307 22.6562 209.097 22.6562C208.816 22.6562 208.578 22.7159 208.385 22.8352C208.192 22.9517 208.096 23.108 208.096 23.304C208.096 23.4602 208.158 23.5923 208.283 23.7003C208.408 23.8082 208.623 23.8949 208.926 23.9602L210.111 24.1989C210.748 24.3295 211.222 24.5398 211.534 24.8295C211.847 25.1193 212.003 25.5 212.003 25.9716C212.003 26.4006 211.877 26.777 211.624 27.1009C211.374 27.4247 211.03 27.6776 210.593 27.8594C210.158 28.0384 209.657 28.1278 209.088 28.1278C208.222 28.1278 207.532 27.9474 207.017 27.5866C206.506 27.223 206.206 26.7287 206.118 26.1037L207.904 26.0099C207.958 26.2741 208.088 26.4759 208.296 26.6151C208.503 26.7514 208.769 26.8196 209.093 26.8196C209.411 26.8196 209.667 26.7585 209.86 26.6364C210.056 26.5114 210.155 26.3509 210.158 26.1548C210.155 25.9901 210.086 25.8551 209.949 25.75C209.813 25.642 209.603 25.5597 209.319 25.5028L208.185 25.277C207.546 25.1491 207.07 24.9276 206.757 24.6122C206.448 24.2969 206.293 23.8949 206.293 23.4062C206.293 22.9858 206.407 22.6236 206.634 22.3196C206.864 22.0156 207.186 21.7812 207.601 21.6165C208.019 21.4517 208.507 21.3693 209.067 21.3693C209.894 21.3693 210.544 21.544 211.019 21.8935C211.496 22.2429 211.775 22.7187 211.854 23.321ZM213.146 28V21.4545H214.962V28H213.146ZM214.058 20.6108C213.788 20.6108 213.557 20.5213 213.364 20.3423C213.173 20.1605 213.078 19.9432 213.078 19.6903C213.078 19.4403 213.173 19.2259 213.364 19.0469C213.557 18.8651 213.788 18.7741 214.058 18.7741C214.328 18.7741 214.558 18.8651 214.749 19.0469C214.942 19.2259 215.038 19.4403 215.038 19.6903C215.038 19.9432 214.942 20.1605 214.749 20.3423C214.558 20.5213 214.328 20.6108 214.058 20.6108ZM218.231 24.2159V28H216.416V21.4545H218.146V22.6094H218.223C218.368 22.2287 218.61 21.9276 218.951 21.706C219.292 21.4815 219.706 21.3693 220.191 21.3693C220.646 21.3693 221.042 21.4688 221.38 21.6676C221.718 21.8665 221.981 22.1506 222.169 22.5199C222.356 22.8864 222.45 23.3239 222.45 23.8324V28H220.635V24.1562C220.637 23.7557 220.535 23.4432 220.328 23.2188C220.12 22.9915 219.835 22.8778 219.471 22.8778C219.227 22.8778 219.011 22.9304 218.824 23.0355C218.639 23.1406 218.494 23.294 218.389 23.4957C218.287 23.6946 218.234 23.9347 218.231 24.2159ZM226.83 30.5909C226.241 30.5909 225.737 30.5099 225.317 30.348C224.899 30.1889 224.567 29.9716 224.32 29.696C224.072 29.4205 223.912 29.1108 223.838 28.767L225.517 28.5412C225.568 28.6719 225.649 28.794 225.76 28.9077C225.871 29.0213 226.017 29.1122 226.199 29.1804C226.384 29.2514 226.608 29.2869 226.872 29.2869C227.267 29.2869 227.592 29.1903 227.848 28.9972C228.107 28.8068 228.236 28.4872 228.236 28.0384V26.8409H228.159C228.08 27.0227 227.96 27.1946 227.801 27.3565C227.642 27.5185 227.438 27.6506 227.188 27.7528C226.938 27.8551 226.639 27.9062 226.293 27.9062C225.801 27.9062 225.354 27.7926 224.95 27.5653C224.55 27.3352 224.23 26.9844 223.991 26.5128C223.756 26.0384 223.638 25.4389 223.638 24.7145C223.638 23.973 223.759 23.3537 224 22.8565C224.241 22.3594 224.563 21.9872 224.963 21.7401C225.366 21.4929 225.808 21.3693 226.288 21.3693C226.655 21.3693 226.962 21.4318 227.209 21.5568C227.456 21.679 227.655 21.8324 227.805 22.017C227.959 22.1989 228.077 22.3778 228.159 22.554H228.227V21.4545H230.03V28.0639C230.03 28.6207 229.893 29.0866 229.621 29.4616C229.348 29.8366 228.97 30.1179 228.487 30.3054C228.007 30.4957 227.455 30.5909 226.83 30.5909ZM226.868 26.5426C227.161 26.5426 227.408 26.4702 227.609 26.3253C227.814 26.1776 227.97 25.9673 228.078 25.6946C228.189 25.419 228.244 25.0895 228.244 24.706C228.244 24.3224 228.19 23.9901 228.082 23.7088C227.974 23.4247 227.818 23.2045 227.614 23.0483C227.409 22.892 227.161 22.8139 226.868 22.8139C226.57 22.8139 226.318 22.8949 226.114 23.0568C225.909 23.2159 225.754 23.4375 225.649 23.7216C225.544 24.0057 225.491 24.3338 225.491 24.706C225.491 25.0838 225.544 25.4105 225.649 25.6861C225.757 25.9588 225.912 26.1705 226.114 26.321C226.318 26.4687 226.57 26.5426 226.868 26.5426ZM232.536 28.1108C232.254 28.1108 232.013 28.0114 231.811 27.8125C231.612 27.6108 231.513 27.3693 231.513 27.0881C231.513 26.8097 231.612 26.571 231.811 26.3722C232.013 26.1733 232.254 26.0739 232.536 26.0739C232.808 26.0739 233.047 26.1733 233.251 26.3722C233.456 26.571 233.558 26.8097 233.558 27.0881C233.558 27.2756 233.51 27.4474 233.413 27.6037C233.32 27.7571 233.196 27.8807 233.043 27.9744C232.889 28.0653 232.72 28.1108 232.536 28.1108ZM236.11 28.1108C235.828 28.1108 235.587 28.0114 235.385 27.8125C235.186 27.6108 235.087 27.3693 235.087 27.0881C235.087 26.8097 235.186 26.571 235.385 26.3722C235.587 26.1733 235.828 26.0739 236.11 26.0739C236.382 26.0739 236.621 26.1733 236.826 26.3722C237.03 26.571 237.132 26.8097 237.132 27.0881C237.132 27.2756 237.084 27.4474 236.988 27.6037C236.894 27.7571 236.77 27.8807 236.617 27.9744C236.463 28.0653 236.294 28.1108 236.11 28.1108ZM239.684 28.1108C239.403 28.1108 239.161 28.0114 238.96 27.8125C238.761 27.6108 238.661 27.3693 238.661 27.0881C238.661 26.8097 238.761 26.571 238.96 26.3722C239.161 26.1733 239.403 26.0739 239.684 26.0739C239.957 26.0739 240.195 26.1733 240.4 26.3722C240.604 26.571 240.707 26.8097 240.707 27.0881C240.707 27.2756 240.658 27.4474 240.562 27.6037C240.468 27.7571 240.344 27.8807 240.191 27.9744C240.038 28.0653 239.869 28.1108 239.684 28.1108Z" fill="#94A3B8"/>
</g>
<defs>
<clipPath id="clip0_3_117">
<rect width="344.66" height="32" fill="white" transform="translate(0 8)"/>
</clipPath>
</defs>
</svg>
